<svg width="24" height="24" xmlns="http://www.w3.org/2000/svg">
 <title/>
 <desc/>

 <g>
  <title>background</title>
  <rect fill="none" id="canvas_background" height="402" width="582" y="-1" x="-1"/>
 </g>
 <g>
  <title>Layer 1</title>
  <path stroke="null" id="circle-social-email-glyph" fill="#000000" d="m12.018202,23.982928c6.607934,0 11.964727,-5.364942 11.964727,-11.982928c0,-6.617986 -5.356793,-11.982928 -11.964727,-11.982928c-6.607934,0 -11.964727,5.364942 -11.964727,11.982928c0,6.617986 5.356793,11.982928 11.964727,11.982928zm-5.679036,-16.340357l11.358072,0l-5.679036,4.75183l-5.679036,-4.75183zm12.20525,0.709008l0,7.238724l-4.336637,-3.619356l4.336637,-3.619367zm-0.777729,8.005849l-11.496971,0l4.401725,-3.683073l1.346761,1.12401l1.346761,-1.12401l4.401725,3.683073zm-12.2747,-0.767125l0,-7.238724l4.336637,3.619367l-4.336637,3.619356z"/>
 </g>
</svg>