<?xml version="1.0" encoding="UTF-8" standalone="no"?>
<!DOCTYPE svg PUBLIC "-//W3C//DTD SVG 1.1//EN" "http://www.w3.org/Graphics/SVG/1.1/DTD/svg11.dtd">
<svg width="100%" height="100%" viewBox="0 0 1998 2000" version="1.1" xmlns="http://www.w3.org/2000/svg" xmlns:xlink="http://www.w3.org/1999/xlink" xml:space="preserve" xmlns:serif="http://www.serif.com/" style="fill-rule:evenodd;clip-rule:evenodd;stroke-miterlimit:10;">
    <g id="adobe-experience-manager-seeklogo.com" transform="matrix(1.33333,0,0,-1.33333,-2002,2000)">
        <g id="g12">
            <g id="g14">
                <g id="g20" transform="matrix(1,0,0,1,1884.96,799.998)">
                    <path id="path22" d="M0,0C0,-55.23 -44.771,-100 -100,-100C-155.23,-100 -200,-144.77 -200,-200C-200,-255.23 -244.771,-300 -300,-300C-355.23,-300 -400,-255.23 -400,-200C-400,-144.77 -444.771,-100 -500,-100C-555.23,-100 -600,-55.23 -600,0C-600,55.23 -555.23,100 -500,100C-444.771,100 -400,144.77 -400,200C-400,255.23 -355.23,300 -300,300C-244.771,300 -200,255.23 -200,200C-200,144.77 -155.23,100 -100,100C-44.771,100 0,55.23 0,0Z" style="fill:none;fill-rule:nonzero;stroke:rgb(152,234,222);stroke-width:8px;"/>
                </g>
            </g>
        </g>
        <rect id="path24" x="1500" y="0" width="1500" height="1500" style="fill:rgb(33,20,7);fill-rule:nonzero;"/>
        <g id="g26">
            <g id="g28">
                <g id="g34" transform="matrix(1,0,0,1,2250,1191.98)">
                    <path id="path36" d="M0,0C-59.679,0 -117.558,-11.682 -172.031,-34.723C-224.658,-56.982 -271.929,-88.854 -312.527,-129.453C-353.126,-170.052 -384.998,-217.322 -407.258,-269.949C-430.298,-324.422 -441.98,-382.302 -441.98,-441.98C-441.98,-501.658 -430.298,-559.538 -407.258,-614.01C-384.998,-666.638 -353.126,-713.908 -312.527,-754.506C-271.929,-795.106 -224.658,-826.977 -172.031,-849.237C-117.558,-872.277 -59.679,-883.959 -0,-883.959C59.678,-883.959 117.558,-872.277 172.03,-849.237C224.658,-826.977 271.928,-795.106 312.526,-754.506C353.125,-713.908 384.997,-666.638 407.257,-614.01C430.297,-559.538 441.979,-501.658 441.979,-441.98C441.979,-382.302 430.297,-324.422 407.257,-269.949C384.997,-217.322 353.125,-170.052 312.526,-129.453C271.928,-88.854 224.658,-56.982 172.03,-34.723C117.558,-11.682 59.678,0 0,0M0,-934.959C-66.541,-934.959 -131.104,-921.921 -191.898,-896.208C-250.604,-871.377 -303.323,-835.835 -348.59,-790.569C-393.855,-745.303 -429.398,-692.584 -454.229,-633.877C-479.942,-573.083 -492.98,-508.52 -492.98,-441.98C-492.98,-375.439 -479.942,-310.875 -454.229,-250.082C-429.398,-191.375 -393.855,-138.657 -348.59,-93.391C-303.323,-48.125 -250.604,-12.582 -191.898,12.249C-131.104,37.962 -66.541,51 0,51C66.54,51 131.104,37.962 191.897,12.249C250.604,-12.582 303.323,-48.125 348.589,-93.391C393.855,-138.657 429.397,-191.375 454.229,-250.082C479.941,-310.875 492.979,-375.439 492.979,-441.98C492.979,-508.52 479.941,-573.083 454.229,-633.877C429.397,-692.584 393.855,-745.303 348.589,-790.569C303.323,-835.835 250.604,-871.377 191.897,-896.208C131.104,-921.921 66.54,-934.959 0,-934.959" style="fill:rgb(239,125,55);fill-rule:nonzero;"/>
                </g>
                <g id="g38" transform="matrix(1,0,0,1,2250,1042.49)">
                    <path id="path40" d="M0,0C-51.005,0 -92.5,-41.496 -92.5,-92.5C-92.5,-151.776 -140.725,-200 -200,-200C-251.005,-200 -292.5,-241.496 -292.5,-292.5C-292.5,-343.504 -251.005,-385 -200,-385C-140.725,-385 -92.5,-433.224 -92.5,-492.5C-92.5,-543.504 -51.005,-585 0,-585C51.004,-585 92.5,-543.504 92.5,-492.5C92.5,-433.224 140.725,-385 200,-385C251.005,-385 292.5,-343.504 292.5,-292.5C292.5,-241.496 251.005,-200 200,-200C140.725,-200 92.5,-151.776 92.5,-92.5C92.5,-41.496 51.004,0 0,0M0,-600C-59.276,-600 -107.5,-551.775 -107.5,-492.5C-107.5,-441.495 -148.996,-400 -200,-400C-259.276,-400 -307.5,-351.775 -307.5,-292.5C-307.5,-233.224 -259.276,-185 -200,-185C-148.996,-185 -107.5,-143.504 -107.5,-92.5C-107.5,-33.224 -59.276,15 0,15C59.275,15 107.5,-33.224 107.5,-92.5C107.5,-143.504 148.995,-185 200,-185C259.275,-185 307.5,-233.224 307.5,-292.5C307.5,-351.775 259.275,-400 200,-400C148.995,-400 107.5,-441.495 107.5,-492.5C107.5,-551.775 59.275,-600 0,-600" style="fill:rgb(250,225,205);fill-rule:nonzero;"/>
                </g>
                <g id="g42" transform="matrix(1,0,0,1,2250,582.096)">
                    <path id="path44" d="M0,0C29.449,0 58.898,-11.21 81.317,-33.629C97.373,-49.684 118.718,-58.525 141.422,-58.525C164.126,-58.525 185.471,-49.684 201.526,-33.629C234.668,-0.487 234.668,53.438 201.526,86.579C179.805,108.3 167.843,137.18 167.843,167.896C167.843,198.613 179.805,227.492 201.526,249.213C217.581,265.268 226.423,286.613 226.423,309.317C226.423,332.021 217.581,353.366 201.526,369.421C168.386,402.562 114.46,402.562 81.317,369.421C36.479,324.583 -36.478,324.583 -81.316,369.421C-97.372,385.476 -118.717,394.318 -141.421,394.318C-164.125,394.318 -185.47,385.476 -201.525,369.421C-234.666,336.28 -234.666,282.354 -201.525,249.213C-179.804,227.492 -167.841,198.613 -167.841,167.896C-167.841,137.18 -179.804,108.3 -201.525,86.579C-217.58,70.524 -226.422,49.179 -226.422,26.475C-226.422,3.771 -217.58,-17.574 -201.525,-33.629C-185.47,-49.684 -164.125,-58.525 -141.421,-58.525C-118.717,-58.525 -97.372,-49.684 -81.316,-33.629C-58.897,-11.21 -29.448,0 0,0M141.422,-88.525C110.705,-88.525 81.825,-76.563 60.104,-54.842C26.963,-21.701 -26.962,-21.701 -60.104,-54.842C-81.824,-76.563 -110.703,-88.525 -141.421,-88.525C-172.138,-88.525 -201.017,-76.563 -222.738,-54.842C-244.459,-33.121 -256.422,-4.242 -256.422,26.475C-256.422,57.191 -244.459,86.071 -222.738,107.792C-206.684,123.848 -197.841,145.192 -197.841,167.896C-197.841,190.6 -206.684,211.945 -222.738,228C-267.576,272.839 -267.576,345.796 -222.738,390.634C-201.017,412.355 -172.138,424.318 -141.421,424.318C-110.703,424.318 -81.824,412.355 -60.104,390.634C-26.962,357.494 26.963,357.494 60.104,390.634C104.944,435.474 177.902,435.473 222.739,390.634C244.461,368.914 256.423,340.035 256.423,309.317C256.423,278.6 244.461,249.721 222.739,228C206.685,211.945 197.843,190.6 197.843,167.896C197.843,145.192 206.685,123.848 222.739,107.792C267.578,62.954 267.578,-10.004 222.739,-54.842C201.019,-76.563 172.139,-88.525 141.422,-88.525" style="fill:rgb(250,225,205);fill-rule:nonzero;"/>
                </g>
            </g>
        </g>
        <g id="g46">
        </g>
    </g>
</svg>
