<svg id="Layer_1" xmlns="http://www.w3.org/2000/svg" viewBox="35 35 505 505"><style>.st0{fill:#3b8cb4}</style><path class="st0" d="M437.7 265.8c-22.5-27.7-15.3-70.6.5-84.8 18.3 14.8 32.6 31.9 34.4 57.3 22.5-6.3 44.4-7.2 65.5 5.7-6.6 14.7-17.3 24.7-31.8 30.9-14.2 6.1-29 6.9-44 6.2-4.7 9.9-9.1 19.8-14 29.3-18.2 35.2-43.2 64.6-75.7 87.5-34 23.9-71.9 37.9-112.8 44.4-20.8 3.3-41.7 5.2-62.7 4.5-37.2-1.1-72.3-9.7-102.8-32.1-25.1-18.5-41.9-42.8-50.4-72.9-5.4-18.9-5.7-38-4.4-57.9 2.5-.1 4.8-.3 7-.3 110.5 0 221 0 331.5-.1 19.1 0 37.3-4.5 54.1-13.8 1.9-1.3 3.6-2.6 5.6-3.9zM84.2 391.1c18.5 29.1 98.6 55.6 135.4 45.9-9.9-7-20.8-14-30.7-22.1-10.3-8.4-17.4-19.5-23.3-31.7-26.7 7.9-53.7 8.2-81.4 7.9zm92.9-27.5c-.3 6.7 4.7 12.3 11.4 12.7 6.9.4 12.6-4.7 12.8-11.7.2-6.7-4.9-12.3-11.5-12.5-6.8-.1-12.4 5-12.7 11.5z"/><path class="st0" d="M186.1 231.7v44.8h-45.2v-44.8h45.2zm111.2-.2h45.2v45.1h-45.2v-45.1zm-6.9-59.1h-45.1v-45.1h45.1v45.1zm-97.1 7h45.1v44.9h-45.1v-44.9zm52 0h45.1v44.9h-45.1v-44.9zm-52 52.2h45v44.9h-45v-44.9zm97.2.2v44.7h-45.1v-44.7h45.1zm-149.6-52.5h44.9v44.9h-44.9v-44.9zM89 231.7h44.8v44.9H89v-44.9z"/><path d="M84.2 391.1c27.7.3 54.8 0 81.4-7.9 5.9 12.2 13 23.3 23.3 31.7 9.9 8.1 20.8 15.1 30.7 22.1-36.8 9.8-117-16.8-135.4-45.9zm92.9-27.5c.3-6.5 5.9-11.7 12.6-11.5 6.6.2 11.8 5.7 11.5 12.5-.2 7-5.9 12.1-12.8 11.7-6.6-.4-11.6-6-11.3-12.7zm14.3-7.6c-4.2-.7-7.9-.2-9.8 3.9-1.7 3.8-1.7 7.9 1.6 11 3.1 3 7 3.2 10.6 1 3.5-2.1 5.1-5.4 4-9.2-2.5-.5-4.7-.9-6.9-1.3.3-2.4.4-3.8.5-5.4z" fill="#fdfefe"/><path class="st0" d="M191.4 356c-.2 1.6-.3 3-.5 5.5 2.2.4 4.4.8 6.9 1.3 1.1 3.7-.5 7-4 9.2-3.6 2.2-7.4 1.9-10.6-1-3.3-3.1-3.3-7.2-1.6-11 1.9-4.3 5.7-4.8 9.8-4z"/></svg>