<svg xmlns="http://www.w3.org/2000/svg" viewBox="0 0 365 365">
  <title>TypeScript</title>
  <path d="m0 182.5v182.5h365v-365h-365z" fill="#007acc"/><path d="m80.7 183.7-.1 15h47.5v135h33.6v-135h47.5v-14.7c0-8.1-.2-14.9-.4-15s-29-.4-64.1-.4l-63.8.2zm213.8-15.3a45.4 45.4 0 0 1 22.8 13.2 59.8 59.8 0 0 1 8.8 11.7c0 .4-15.8 11-25.4 17-.3.3-1.7-1.2-3.3-3.6-4.7-6.8-9.6-9.7-17.1-10.3-11.1-.7-18.3 5-18.2 14.7a13.4 13.4 0 0 0 1.6 6.9c2.4 5 7 8 21.1 14.2 26.1 11.2 37.3 18.6 44.3 29.2a53 53 0 0 1 4.2 44.5c-5.8 15.2-20.2 25.5-40.4 28.9-6.2 1-21 1-27.8-.3a67 67 0 0 1 -37.1-19.4 64.2 64.2 0 0 1 -9.5-14 26.7 26.7 0 0 1 3.4-2.2l13.5-7.8 10.5-6 2.2 3.2c3 4.7 9.8 11 13.8 13.2 11.7 6.2 27.7 5.3 35.6-1.8a13.4 13.4 0 0 0 4.7-11c0-4.1-.5-6-2.7-9.2-2.9-4-8.6-7.4-25.1-14.6-18.8-8-27-13.1-34.4-21.1a48 48 0 0 1 -10-18.3c-1.3-5.1-1.7-18-.6-23.3 3.9-18.2 17.6-30.8 37.4-34.6a92 92 0 0 1 27.7.8z" fill="#fff"/>
</svg>